<svg xmlns="http://www.w3.org/2000/svg" viewBox="0 0 28 28"><path d="M40.83,26c.51.07,1,.12,1.51.21a13.66,13.66,0,0,1,5.59,2.28l.14.09.08,0c0-.28,0-.56-.08-.83a.85.85,0,0,1,.75-1,.83.83,0,0,1,.88.81c.09.92.18,1.85.26,2.77a.85.85,0,0,1-.83,1l-2.79.35a.82.82,0,1,1-.2-1.62l1-.13L47,29.85a11.91,11.91,0,0,0-6-2.12A12.09,12.09,0,0,0,30.9,31.64a11.79,11.79,0,0,0-3.2,6.86A12.34,12.34,0,0,0,38.43,52.28a12.31,12.31,0,0,0,13.33-8.56,12.18,12.18,0,0,0,.55-3.44,2.93,2.93,0,0,1,0-.41.82.82,0,0,1,.88-.65.83.83,0,0,1,.74.87,13.16,13.16,0,0,1-1.1,5.36A13.65,13.65,0,0,1,42.2,53.84a14,14,0,0,1-16-11.23c-.1-.56-.16-1.13-.23-1.7V39.16c.09-.62.15-1.24.27-1.86a14,14,0,0,1,11.29-11L39.08,26Z" transform="translate(-25.96 -26.04)" style="fill:#b5b5b5"/><path d="M42.65,40.85h-.81A.84.84,0,0,1,41,40a.82.82,0,0,1,.87-.82h1.75a.78.78,0,0,1,.83.74,3.72,3.72,0,0,1-2,3.66A3.86,3.86,0,1,1,43,36.74a.83.83,0,1,1-.85,1.4,2.14,2.14,0,0,0-2.4,0,2.22,2.22,0,0,0,.52,4A1.73,1.73,0,0,0,42.65,40.85Z" transform="translate(-25.96 -26.04)" style="fill:#b5b5b5"/><path d="M32.88,36.2a.92.92,0,0,1,1,.59q1.14,3,2.27,6a.82.82,0,0,1-1.53.57c-.11-.25-.2-.51-.29-.77a.25.25,0,0,0-.27-.2q-1.08,0-2.16,0a.25.25,0,0,0-.27.21c-.09.25-.19.51-.29.76a.78.78,0,0,1-1.05.46.76.76,0,0,1-.48-1c.76-2,1.52-4,2.3-6A.83.83,0,0,1,32.88,36.2ZM33,39.06l-.65,1.7H33.6Z" transform="translate(-25.96 -26.04)" style="fill:#b5b5b5"/><path d="M47.65,37.85v1.37h1.51a.82.82,0,1,1,0,1.64h-1.5v1.37H48c.47,0,.95,0,1.42,0a.82.82,0,1,1,0,1.63H46.84a.81.81,0,0,1-.84-.82,1.2,1.2,0,0,1,0-.19V37.18a.84.84,0,0,1,1-1h2.3a.82.82,0,0,1,.92.82.84.84,0,0,1-.93.82Z" transform="translate(-25.96 -26.04)" style="fill:#b5b5b5"/></svg>