<svg width="16" height="21" viewBox="0 0 16 21" fill="none" xmlns="http://www.w3.org/2000/svg">
<path d="M14.4799 9.56694C14.2171 9.21693 13.8972 8.91359 13.6001 8.61025C12.8345 7.91023 11.9661 7.40854 11.2348 6.67352C9.53226 4.97014 9.15519 2.15839 10.2407 0C9.15519 0.268341 8.20679 0.875025 7.39551 1.54004C4.43605 3.96678 3.27055 8.24857 4.66458 11.9237C4.71029 12.0403 4.75599 12.157 4.75599 12.3087C4.75599 12.5654 4.5846 12.7987 4.35607 12.892C4.09326 13.0087 3.81902 12.9387 3.60192 12.752C3.53336 12.6937 3.48765 12.6354 3.44195 12.5537C2.15076 10.8853 1.94508 8.49358 2.81349 6.58019C0.90527 8.1669 -0.134539 10.8503 0.0140051 13.382C0.082564 13.9654 0.151123 14.5487 0.345373 15.1321C0.505344 15.8321 0.813859 16.5321 1.15665 17.1505C2.39071 19.1689 4.52746 20.6156 6.82419 20.9073C9.26945 21.2223 11.8861 20.7673 13.7601 19.0405C15.8511 17.1038 16.5824 14.0004 15.5083 11.3403L15.3598 11.037C15.1198 10.5003 14.4799 9.56694 14.4799 9.56694ZM10.8692 16.9171C10.5492 17.1972 10.0236 17.5005 9.61225 17.6172C8.33248 18.0838 7.05272 17.4305 6.29857 16.6605C7.65832 16.3338 8.4696 15.3071 8.70955 14.2687C8.9038 13.3354 8.53816 12.5654 8.38961 11.667C8.2525 10.8036 8.27535 10.0686 8.58386 9.2636C8.80097 9.70694 9.0295 10.1503 9.30373 10.5003C10.1836 11.667 11.5662 12.1803 11.8633 13.7671C11.909 13.9304 11.9318 14.0937 11.9318 14.2687C11.9661 15.2254 11.5547 16.2755 10.8692 16.9171Z" fill="#EA7E43"/>
</svg>
