<svg xmlns="http://www.w3.org/2000/svg" viewBox="0 0 28 24"><path d="M27,9c-.06.34-.11.68-.2,1A6.4,6.4,0,0,1,22,14.77c-.19.05-.24.12-.23.3,0,.6,0,1.19,0,1.79,0,.08,0,.15,0,.25h1.38a1.23,1.23,0,1,1-.05,2.46H21.8l-.07,0c0,.39,0,.8,0,1.21A1.22,1.22,0,0,1,19.3,21a6,6,0,0,1,0-.95v-.5h-.69a6.14,6.14,0,0,1-.86,0,1.22,1.22,0,0,1-1.08-1.31,1.24,1.24,0,0,1,1.24-1.13h1.37c0-.08,0-.14,0-.2,0-.63,0-1.25,0-1.87,0-.15,0-.22-.19-.26A6.47,6.47,0,1,1,26.87,7.2c.05.23.09.47.13.71Zm-6.5,3.47a4,4,0,1,0-4-4A4,4,0,0,0,20.5,12.49Z" style="fill:#b5b5b5"/><path d="M6.25,6c-.2.18-.35.33-.51.46A1.23,1.23,0,0,1,4,6.39a1.19,1.19,0,0,1,.08-1.72c.85-.78,1.71-1.56,2.57-2.32a1.2,1.2,0,0,1,1.68,0c.88.77,1.74,1.55,2.6,2.34A1.23,1.23,0,0,1,9.28,6.5L8.73,6v.52c0,.81,0,1.62,0,2.43,0,.16,0,.22.22.26a6.49,6.49,0,1,1-2.89,0c.14,0,.22-.06.22-.23,0-.94,0-1.89,0-2.83A1.14,1.14,0,0,0,6.25,6Zm1.24,5.5a4,4,0,1,0,4,4A4,4,0,0,0,7.49,11.52Z" style="fill:#b5b5b5"/></svg>