<svg width="19" height="19" viewBox="0 0 19 19" fill="none" xmlns="http://www.w3.org/2000/svg">
<path d="M9.08203 9.14795C9.91536 9.14795 10.6237 8.85628 11.207 8.27295C11.7904 7.68962 12.082 6.98128 12.082 6.14795C12.082 5.31462 11.7904 4.60628 11.207 4.02295C10.6237 3.43962 9.91536 3.14795 9.08203 3.14795C8.2487 3.14795 7.54036 3.43962 6.95703 4.02295C6.3737 4.60628 6.08203 5.31462 6.08203 6.14795C6.08203 6.98128 6.3737 7.68962 6.95703 8.27295C7.54036 8.85628 8.2487 9.14795 9.08203 9.14795ZM7.58203 6.64795C7.4487 6.64795 7.33203 6.59795 7.23203 6.49795C7.13203 6.39795 7.08203 6.28128 7.08203 6.14795C7.08203 6.01462 7.13203 5.89795 7.23203 5.79795C7.33203 5.69795 7.4487 5.64795 7.58203 5.64795C7.71536 5.64795 7.83203 5.69795 7.93203 5.79795C8.03203 5.89795 8.08203 6.01462 8.08203 6.14795C8.08203 6.28128 8.03203 6.39795 7.93203 6.49795C7.83203 6.59795 7.71536 6.64795 7.58203 6.64795ZM9.08203 6.64795C8.9487 6.64795 8.83203 6.59795 8.73203 6.49795C8.63203 6.39795 8.58203 6.28128 8.58203 6.14795C8.58203 6.01462 8.63203 5.89795 8.73203 5.79795C8.83203 5.69795 8.9487 5.64795 9.08203 5.64795C9.21536 5.64795 9.33203 5.69795 9.43203 5.79795C9.53203 5.89795 9.58203 6.01462 9.58203 6.14795C9.58203 6.28128 9.53203 6.39795 9.43203 6.49795C9.33203 6.59795 9.21536 6.64795 9.08203 6.64795ZM10.582 6.64795C10.4487 6.64795 10.332 6.59795 10.232 6.49795C10.132 6.39795 10.082 6.28128 10.082 6.14795C10.082 6.01462 10.132 5.89795 10.232 5.79795C10.332 5.69795 10.4487 5.64795 10.582 5.64795C10.7154 5.64795 10.832 5.69795 10.932 5.79795C11.032 5.89795 11.082 6.01462 11.082 6.14795C11.082 6.28128 11.032 6.39795 10.932 6.49795C10.832 6.59795 10.7154 6.64795 10.582 6.64795ZM2.08203 18.1479C1.53203 18.1479 1.0612 17.9521 0.669531 17.5604C0.277865 17.1688 0.0820312 16.6979 0.0820312 16.1479V2.14795C0.0820312 1.59795 0.277865 1.12712 0.669531 0.735449C1.0612 0.343783 1.53203 0.147949 2.08203 0.147949H16.082C16.632 0.147949 17.1029 0.343783 17.4945 0.735449C17.8862 1.12712 18.082 1.59795 18.082 2.14795V16.1479C18.082 16.6979 17.8862 17.1688 17.4945 17.5604C17.1029 17.9521 16.632 18.1479 16.082 18.1479H2.08203ZM2.08203 16.1479H16.082V2.14795H2.08203V16.1479Z" fill="#1C1B1F"/>
</svg>
