<svg width="32" height="32" viewBox="0 0 32 32" fill="none" xmlns="http://www.w3.org/2000/svg">
<path fill-rule="evenodd" clip-rule="evenodd" d="M3.63096 0.815194C3.62111 0.698677 3.58844 0.585245 3.53482 0.481377C3.48119 0.377509 3.40767 0.285238 3.31845 0.209835C3.22922 0.134432 3.12604 0.0773732 3.0148 0.0419167C2.90356 0.00646016 2.78644 -0.00669943 2.67012 0.00318967L0.898644 0.15455C0.663892 0.174492 0.446647 0.286974 0.294646 0.467281C0.142645 0.647587 0.0683236 0.880966 0.0880138 1.11613L0.380445 4.56092C0.252571 4.65024 0.150398 4.77167 0.0841781 4.91304C0.0179578 5.05441 -0.00998043 5.21074 0.00316694 5.36634C0.0163143 5.52194 0.0700846 5.67134 0.159083 5.79955C0.248081 5.92775 0.369176 6.03026 0.510217 6.09678L0.821314 9.76682C0.831168 9.88334 0.86384 9.99677 0.917462 10.1006C0.971084 10.2045 1.04461 10.2968 1.13383 10.3722C1.22306 10.4476 1.32624 10.5046 1.43748 10.5401C1.54872 10.5756 1.66584 10.5887 1.78216 10.5788L3.55363 10.4275C3.78839 10.4075 4.00563 10.295 4.15763 10.1147C4.30963 9.93443 4.38396 9.70105 4.36426 9.46588L4.03539 5.5964C4.4887 5.51538 4.93313 5.43792 5.37222 5.36491C5.46555 6.834 5.73665 9.3261 6.23618 11.6731C6.55617 13.1689 6.99348 14.7306 7.60145 15.9592C7.90366 16.5718 8.29653 17.1986 8.81651 17.6937C9.27604 18.1317 9.89824 18.519 10.6662 18.6205V22.4775C10.5696 22.4429 10.473 22.4082 10.3764 22.3734L10.1782 22.3021C9.28493 21.9816 8.37742 21.6557 7.68411 21.4803C7.34813 21.3949 6.83882 21.2836 6.33929 21.3281C5.91287 21.3608 5.50604 21.5208 5.17134 21.7875C4.94261 21.9742 4.75856 22.2099 4.63273 22.4772C4.50691 22.7445 4.44251 23.0367 4.44426 23.3323C4.44426 24.065 4.69403 25.9499 4.90646 27.4555C5.03744 28.3849 5.17373 29.3136 5.31533 30.2414L5.34378 30.4275L5.35178 30.4765L5.35355 30.489V30.4934L7.11081 30.221L5.35444 30.4943C5.42256 30.9257 5.64661 31.317 5.98397 31.5938C6.32132 31.8705 6.74846 32.0134 7.18413 31.9953C7.61981 31.9771 8.03363 31.7992 8.3469 31.4954C8.66017 31.1916 8.85102 30.783 8.88317 30.3474L9.21205 25.7389C10.1996 26.0933 11.3524 26.5019 12.491 26.8225C13.6225 27.1412 14.8642 27.4101 15.9993 27.4101C17.1344 27.4101 18.3761 27.1412 19.5076 26.8225C20.6364 26.5046 21.7795 26.0995 22.7608 25.7478L23.1154 30.3572C23.1492 30.7924 23.3413 31.2 23.6553 31.5026C23.9694 31.8052 24.3834 31.9817 24.8189 31.9987C25.2543 32.0156 25.6808 31.8717 26.0173 31.5944C26.3538 31.317 26.5769 30.9256 26.6441 30.4943L26.645 30.489L26.6468 30.4765L26.6548 30.4275L26.6833 30.2405C26.8255 29.3131 26.9618 28.3847 27.0921 27.4555C27.3046 25.9499 27.5543 24.065 27.5543 23.3332C27.5543 22.8079 27.3499 22.2131 26.8272 21.7875C26.4926 21.5208 26.0857 21.3608 25.6593 21.3281C25.1598 21.2836 24.6505 21.3949 24.3136 21.4794C23.6203 21.6557 22.7137 21.9816 21.8204 22.3021L21.6222 22.3734L21.3324 22.4775V18.625C23.0123 18.4371 24.03 17.0731 24.5909 15.9877C25.2415 14.7306 25.6664 13.1413 25.9544 11.6375C26.4059 9.28781 26.5837 6.82064 26.6415 5.37648C27.0752 5.44771 27.5152 5.52339 27.9623 5.60263L27.6334 9.46588C27.6138 9.70119 27.6882 9.9347 27.8404 10.115C27.9926 10.2954 28.21 10.4077 28.445 10.4275L30.2155 10.5788C30.3319 10.5887 30.449 10.5756 30.5602 10.5401C30.6715 10.5046 30.7746 10.4476 30.8639 10.3722C30.9531 10.2968 31.0266 10.2045 31.0802 10.1006C31.1339 9.99677 31.1665 9.88334 31.1764 9.76682L31.4875 6.09678C31.629 6.03075 31.7506 5.92848 31.84 5.8003C31.9295 5.67212 31.9835 5.52257 31.9968 5.36675C32.0101 5.21093 31.982 5.05437 31.9155 4.91288C31.849 4.77139 31.7465 4.64998 31.6181 4.56092L31.9106 1.11613C31.9303 0.880966 31.8559 0.647587 31.7039 0.467281C31.5519 0.286974 31.3347 0.174492 31.0999 0.15455L29.3285 0.00318967C29.0937 -0.0165339 28.8607 0.0579132 28.6807 0.210172C28.5007 0.36243 28.3884 0.580044 28.3685 0.815194L28.1134 3.82103C27.558 3.72317 27.0019 3.62968 26.445 3.54057C26.3122 3.29923 26.1252 3.09207 25.8988 2.9354C25.6725 2.77874 25.4129 2.67685 25.1405 2.63775C24.8682 2.59866 24.5905 2.62342 24.3293 2.71009C24.0681 2.79677 23.8306 2.94299 23.6354 3.13724C18.2339 2.45434 13.6607 2.45523 8.35342 3.12834C8.15824 2.93706 7.92169 2.79339 7.66213 2.70848C7.40257 2.62356 7.12697 2.59968 6.85671 2.63868C6.58645 2.67769 6.32879 2.77854 6.10371 2.9334C5.87864 3.08826 5.69221 3.29298 5.55888 3.53167C5.01135 3.61892 4.45404 3.7133 3.88518 3.8148L3.63096 0.815194ZM9.71336 10.9296C9.29974 8.92587 9.02885 6.89519 8.90273 4.85295C13.8189 4.25375 18.0979 4.25375 23.1021 4.86542C23.0683 6.05137 22.9172 8.59957 22.463 10.9644C22.1963 12.3542 21.8497 13.5473 21.4346 14.3495C21.152 14.8953 20.9582 15.0484 20.8942 15.0849H11.2377C11.1346 14.9772 10.9755 14.759 10.7871 14.378C10.3764 13.5473 10.012 12.3275 9.71336 10.9296ZM19.9991 9.29761C19.9991 10.3602 19.5777 11.3793 18.8276 12.1307C18.0775 12.8821 17.0601 13.3042 15.9993 13.3042C14.9385 13.3042 13.9211 12.8821 13.171 12.1307C12.4209 11.3793 11.9995 10.3602 11.9995 9.29761C11.9995 8.23499 12.4209 7.2159 13.171 6.46452C13.9211 5.71313 14.9385 5.29101 15.9993 5.29101C17.0601 5.29101 18.0775 5.71313 18.8276 6.46452C19.5777 7.2159 19.9991 8.23499 19.9991 9.29761Z" fill="white"/>
</svg>
