<svg xmlns="http://www.w3.org/2000/svg" viewBox="0 0 340 340"><path d="M206.25,104.63c-19.75,7.44-39.43,15.08-59.12,22.71a32.8,32.8,0,0,0-19.45,19c-7.92,20-15.75,40-23.34,60.09-3.39,9-1.57,17.3,5.29,24.05s15,8.38,24.08,4.93q29.07-11.1,58.1-22.26A35.37,35.37,0,0,0,213.07,192c7.42-19.24,15-38.44,22.43-57.65a24.86,24.86,0,0,0,1.76-8C237.22,109.68,221.45,98.9,206.25,104.63Zm-.17,42.46c-4.76,12.26-9.56,24.51-14.25,36.8a11.91,11.91,0,0,1-6.87,7.39Q156,202.71,127.13,214.1a7.48,7.48,0,0,1-1.33.13c7.71-20,15.26-39.7,22.86-59.35a10.08,10.08,0,0,1,5.88-5.92c19.73-7.74,39.47-15.45,59.94-23.45C211.51,133.12,208.79,140.11,206.08,147.09Z" style="fill:#fefefe"/><path d="M170.25-.29C76.36-.3-.29,75.92-.28,169.28a170.38,170.38,0,0,0,170.59,171c93.35.16,170.19-76.75,170-170.14C340.07,75.92,264.05-.28,170.25-.29Zm-.33,317.79c-81.12.11-147.38-65.88-147.44-146.83C22.42,88.62,88,22.6,169.68,22.45A147.5,147.5,0,0,1,317.52,170.07C317.68,251.46,251.67,317.39,169.92,317.5Z" style="fill:#fefefe"/><path d="M206.25,104.63c-19.75,7.44-39.43,15.08-59.12,22.71a32.8,32.8,0,0,0-19.45,19c-7.92,20-15.75,40-23.34,60.09-3.39,9-1.57,17.3,5.29,24.05s15,8.38,24.08,4.93q29.07-11.1,58.1-22.26A35.37,35.37,0,0,0,213.07,192c7.42-19.24,15-38.44,22.43-57.65a24.86,24.86,0,0,0,1.76-8C237.22,109.68,221.45,98.9,206.25,104.63Zm-.17,42.46c-4.76,12.26-9.56,24.51-14.25,36.8a11.91,11.91,0,0,1-6.87,7.39Q156,202.71,127.13,214.1a7.48,7.48,0,0,1-1.33.13c7.71-20,15.26-39.7,22.86-59.35a10.08,10.08,0,0,1,5.88-5.92c19.73-7.74,39.47-15.45,59.94-23.45C211.51,133.12,208.79,140.11,206.08,147.09Z"/><path d="M170.25-.29C76.36-.3-.29,75.92-.28,169.28a170.38,170.38,0,0,0,170.59,171c93.35.16,170.19-76.75,170-170.14C340.07,75.92,264.05-.28,170.25-.29Zm-.33,317.79c-81.12.11-147.38-65.88-147.44-146.83C22.42,88.62,88,22.6,169.68,22.45A147.5,147.5,0,0,1,317.52,170.07C317.68,251.46,251.67,317.39,169.92,317.5Z"/><path d="M206.25,104.63c-19.75,7.44-39.43,15.08-59.12,22.71a32.8,32.8,0,0,0-19.45,19c-7.92,20-15.75,40-23.34,60.09-3.39,9-1.57,17.3,5.29,24.05s15,8.38,24.08,4.93q29.07-11.1,58.1-22.26A35.37,35.37,0,0,0,213.07,192c7.42-19.24,15-38.44,22.43-57.65a24.86,24.86,0,0,0,1.76-8C237.22,109.68,221.45,98.9,206.25,104.63Zm-.17,42.46c-4.76,12.26-9.56,24.51-14.25,36.8a11.91,11.91,0,0,1-6.87,7.39Q156,202.71,127.13,214.1a7.48,7.48,0,0,1-1.33.13c7.71-20,15.26-39.7,22.86-59.35a10.08,10.08,0,0,1,5.88-5.92c19.73-7.74,39.47-15.45,59.94-23.45C211.51,133.12,208.79,140.11,206.08,147.09Z" style="fill:#fefefe"/><path d="M206.25,104.63c-19.75,7.44-39.43,15.08-59.12,22.71a32.8,32.8,0,0,0-19.45,19c-7.92,20-15.75,40-23.34,60.09-3.39,9-1.57,17.3,5.29,24.05s15,8.38,24.08,4.93q29.07-11.1,58.1-22.26A35.37,35.37,0,0,0,213.07,192c7.42-19.24,15-38.44,22.43-57.65a24.86,24.86,0,0,0,1.76-8C237.22,109.68,221.45,98.9,206.25,104.63Zm-.17,42.46c-4.76,12.26-9.56,24.51-14.25,36.8a11.91,11.91,0,0,1-6.87,7.39Q156,202.71,127.13,214.1a7.48,7.48,0,0,1-1.33.13c7.71-20,15.26-39.7,22.86-59.35a10.08,10.08,0,0,1,5.88-5.92c19.73-7.74,39.47-15.45,59.94-23.45C211.51,133.12,208.79,140.11,206.08,147.09Z"/></svg>