<svg width="27" height="28" viewBox="0 0 27 28" fill="none" xmlns="http://www.w3.org/2000/svg">
<path d="M9.72997 25.4053V21.4303C9.72997 20.4156 10.5686 19.593 11.6032 19.593H15.385C15.8818 19.593 16.3583 19.7866 16.7096 20.1311C17.0609 20.4757 17.2582 20.943 17.2582 21.4303V25.4053C17.2551 25.8272 17.4238 26.2328 17.7268 26.5322C18.0298 26.8316 18.4422 27 18.8723 27H21.4524C22.6574 27.003 23.8141 26.5357 24.6673 25.701C25.5205 24.8664 26 23.7331 26 22.5512V11.2269C26 10.2722 25.5685 9.36659 24.8219 8.75406L16.0448 1.87863C14.518 0.67313 12.3304 0.712053 10.8492 1.97107L2.27238 8.75406C1.49045 9.34853 1.0231 10.2568 1 11.2269V22.5396C1 25.003 3.03603 27 5.5476 27H8.0688C8.96214 27 9.68815 26.2931 9.69463 25.4169L9.72997 25.4053Z" stroke="black" stroke-width="2"/>
</svg>
