<svg width="24" height="30" viewBox="0 0 24 30" fill="none" xmlns="http://www.w3.org/2000/svg">
<path d="M12 20.8609C15.2273 20.8609 18.0711 21.1275 20.0732 21.8365C21.067 22.1885 21.7762 22.6232 22.2292 23.1176C22.6594 23.5871 22.9 24.1529 22.9 24.8984C22.9 25.6422 22.6588 26.2044 22.2276 26.6705C21.773 27.1619 21.0611 27.5932 20.0643 27.9413C18.0563 28.6426 15.2112 28.9 12 28.9C8.77352 28.9 5.92963 28.6334 3.92729 27.9243C2.93344 27.5724 2.22406 27.1376 1.77098 26.6433C1.34063 26.1737 1.1 25.6079 1.1 24.8624C1.1 24.1187 1.34124 23.5565 1.77239 23.0904C2.22697 22.599 2.93889 22.1677 3.93571 21.8196C5.9437 21.1183 8.7888 20.8609 12 20.8609ZM12 1.1C15.8017 1.1 18.841 4.13906 18.841 7.93658C18.841 11.7344 15.8014 14.7747 12 14.7747C8.19998 14.7747 5.15902 11.7342 5.15902 7.93658C5.15902 4.1392 8.19971 1.1 12 1.1Z" stroke="black" stroke-width="2.2"/>
</svg>
