<svg width="30" height="30" viewBox="0 0 30 30" fill="none" xmlns="http://www.w3.org/2000/svg">
<path d="M17.4424 12.2094C17.4424 12.787 17.9112 13.2559 18.4889 13.2559H19.4517L16.6429 16.0647C16.6105 16.0972 16.572 16.123 16.5296 16.1405C16.4872 16.1581 16.4418 16.1672 16.3959 16.1672C16.35 16.1672 16.3046 16.1581 16.2622 16.1405C16.2198 16.123 16.1813 16.0972 16.1489 16.0647L13.9359 13.8517C13.478 13.3941 12.8572 13.1371 12.2098 13.1371C11.5625 13.1371 10.9417 13.3941 10.4838 13.8517L7.28425 17.0512C7.18143 17.147 7.09897 17.2626 7.04177 17.3909C6.98457 17.5193 6.95381 17.6579 6.95133 17.7984C6.94886 17.9389 6.9747 18.0785 7.02734 18.2088C7.07997 18.3391 7.15831 18.4575 7.25769 18.5568C7.35706 18.6562 7.47544 18.7346 7.60574 18.7872C7.73605 18.8398 7.87563 18.8657 8.01614 18.8632C8.15666 18.8607 8.29524 18.83 8.42361 18.7728C8.55198 18.7156 8.66752 18.6331 8.76332 18.5303L11.9629 15.3307C11.9953 15.2983 12.0338 15.2725 12.0761 15.2549C12.1185 15.2373 12.164 15.2283 12.2098 15.2283C12.2557 15.2283 12.3012 15.2373 12.3435 15.2549C12.3859 15.2725 12.4244 15.2983 12.4568 15.3307L14.6698 17.5438C15.1277 18.0013 15.7486 18.2584 16.3959 18.2584C17.0432 18.2584 17.664 18.0013 18.1219 17.5438L20.9308 14.7363V15.6977C20.9308 15.9753 21.041 16.2415 21.2373 16.4377C21.4335 16.634 21.6997 16.7442 21.9773 16.7442C22.2548 16.7442 22.521 16.634 22.7173 16.4377C22.9135 16.2415 23.0238 15.9753 23.0238 15.6977V12.2094C23.0238 11.9318 22.9135 11.6656 22.7173 11.4694C22.521 11.2731 22.2548 11.1628 21.9773 11.1628H18.4889C18.2114 11.1628 17.9452 11.2731 17.7489 11.4694C17.5527 11.6656 17.4424 11.9318 17.4424 12.2094Z" fill="black"/>
<path fill-rule="evenodd" clip-rule="evenodd" d="M14.9205 0C11.6986 0 9.17442 8.31693e-08 7.20419 0.265116C5.1893 0.535814 3.5986 1.10233 2.34977 2.34977C1.10093 3.5986 0.535814 5.1893 0.265116 7.20558C8.31693e-08 9.17442 0 11.6986 0 14.9205V15.0795C0 18.3014 8.31693e-08 20.8256 0.265116 22.7958C0.535814 24.8107 1.10233 26.4014 2.34977 27.6502C3.5986 28.8991 5.1893 29.4642 7.20558 29.7349C9.17442 30 11.6986 30 14.9205 30H15.0795C18.3014 30 20.8256 30 22.7958 29.7349C24.8107 29.4642 26.4014 28.8977 27.6502 27.6502C28.8991 26.4014 29.4642 24.8107 29.7349 22.7944C30 20.8256 30 18.3014 30 15.0795V14.9205C30 11.6986 30 9.17442 29.7349 7.20419C29.4642 5.1893 28.8977 3.5986 27.6502 2.34977C26.4014 1.10093 24.8107 0.535814 22.7944 0.265116C20.8256 8.31693e-08 18.3014 0 15.0795 0H14.9205ZM3.83023 3.83023C4.62558 3.03488 5.7 2.5786 7.48465 2.3386C9.2986 2.09581 11.6819 2.09302 15 2.09302C18.3181 2.09302 20.7014 2.09581 22.5153 2.3386C24.3 2.5786 25.3758 3.03628 26.1712 3.83023C26.9651 4.62558 27.4214 5.7 27.6614 7.48465C27.9042 9.2986 27.907 11.6819 27.907 15C27.907 18.3181 27.9042 20.7014 27.6614 22.5153C27.4214 24.3 26.9637 25.3758 26.1698 26.1712C25.3744 26.9651 24.3 27.4214 22.5153 27.6614C20.7014 27.9042 18.3181 27.907 15 27.907C11.6819 27.907 9.2986 27.9042 7.48465 27.6614C5.7 27.4214 4.62419 26.9637 3.82884 26.1698C3.03488 25.3744 2.5786 24.3 2.3386 22.5153C2.09581 20.7014 2.09302 18.3181 2.09302 15C2.09302 11.6819 2.09581 9.2986 2.3386 7.48465C2.5786 5.7 3.03628 4.62558 3.83023 3.83023Z" fill="black"/>
</svg>
